<svg width="50" height="50" viewBox="0 0 50 50" fill="none" xmlns="http://www.w3.org/2000/svg">
<path d="M42.4988 33.076V38.7212C42.501 39.2453 42.3934 39.764 42.183 40.2442C41.9727 40.7244 41.6641 41.1554 41.2772 41.5097C40.8902 41.864 40.4334 42.1337 39.936 42.3016C39.4385 42.4695 38.9115 42.5319 38.3885 42.4847C32.5865 41.8555 27.0133 39.8769 22.1167 36.7077C17.561 33.8186 13.6986 29.9639 10.8038 25.4172C7.61724 20.5081 5.6342 14.9189 5.0153 9.10241C4.96819 8.58204 5.03015 8.05758 5.19725 7.56242C5.36436 7.06727 5.63294 6.61226 5.98589 6.22637C6.33884 5.84049 6.76844 5.53217 7.24733 5.32106C7.72622 5.10995 8.2439 5.00067 8.76743 5.00018H14.4239C15.3389 4.99119 16.226 5.31458 16.9198 5.91007C17.6136 6.50556 18.0668 7.33252 18.1949 8.2368C18.4336 10.0434 18.8764 11.8173 19.5147 13.5245C19.7684 14.1981 19.8233 14.93 19.6729 15.6337C19.5225 16.3375 19.1732 16.9834 18.6662 17.495L16.2717 19.8849C18.9558 24.5959 22.8642 28.4966 27.5846 31.1754L29.9792 28.7856C30.4918 28.2796 31.1391 27.931 31.8442 27.7809C32.5493 27.6308 33.2827 27.6856 33.9576 27.9388C35.6682 28.5758 37.4456 29.0177 39.2558 29.256C40.1717 29.3849 41.0082 29.8454 41.6061 30.5497C42.2041 31.254 42.5218 32.1531 42.4988 33.076Z" stroke="#B69B89" stroke-linecap="round" stroke-linejoin="round"/>
</svg>
